<?xml version="1.0" encoding="utf-8"?>
<!-- Generator: Adobe Illustrator 26.0.2, SVG Export Plug-In . SVG Version: 6.00 Build 0)  -->
<svg version="1.1" id="Layer_1" xmlns="http://www.w3.org/2000/svg" xmlns:xlink="http://www.w3.org/1999/xlink" x="0px" y="0px"
	 viewBox="0 0 60 60" style="enable-background:new 0 0 60 60;" xml:space="preserve">
<style type="text/css">
	.st0{fill:#6699D2;}
	.st1{fill:#004481;}
	.st2{fill:#00599C;}
	.st3{fill:#7EAACD;}
	.st4{fill:#FEFEFE;}
	.st5{fill:#6697CE;}
	.st6{fill:#014481;}
	.st7{fill:#F0F5F9;}
</style>
<g>
	<path class="st0" d="M4.8,29.1c-0.5-0.1-0.6-0.5-0.6-1c0-1.7-0.1-3.4,0-5.1c0.1-1.5-0.5-2.9-0.3-4.4c0.1-1.4,0.1-2.9,0-4.3
		c0-0.9,0.3-1.3,1.1-1.8c2.2-1.2,4.2-2.6,6.3-3.9c1.2-0.7,2.3-1.3,3.5-2c0.8-0.5,1.7-1,2.5-1.6c0.3-0.2,0.6-0.3,0.9-0.1
		c1.1,0.6,2.3,1.3,3.4,1.9c1.2,0.7,2.5,1.5,3.7,2.2c1.8,1.1,3.7,2.3,5.5,3.4c0.3,0.2,0.4,0.4,0.3,0.8c-1.5,1.6-3.4,2.6-5.4,3.4
		c-1.6-2.3-3.7-3.7-6.3-4.6c-0.2-0.3-0.4-0.2-0.6,0c-1.3,0.3-2.7,0-4,0.5c-4.7,1.9-7.1,7-5.4,11.9c0.2,0.5,0.5,1,0.5,1.6
		C8.6,27.5,6.8,28.5,4.8,29.1z"/>
	<path class="st0" d="M29.1,48.9c-0.5-0.1-0.6-0.5-0.6-1c0-1.7-0.1-3.4,0-5.1c0.1-1.5-0.5-2.9-0.3-4.4c0.1-1.4,0.1-2.9,0-4.3
		c0-0.9,0.3-1.3,1.1-1.8c2.2-1.2,4.2-2.6,6.3-3.9c1.2-0.7,2.3-1.3,3.5-2c0.8-0.5,1.7-1,2.5-1.6c0.3-0.2,0.6-0.3,0.9-0.1
		c1.1,0.6,2.3,1.3,3.4,1.9c1.2,0.7,2.5,1.5,3.7,2.2c1.8,1.1,3.7,2.3,5.5,3.4c0.3,0.2,0.4,0.4,0.3,0.8c-1.5,1.6-3.4,2.6-5.4,3.4
		c-1.6-2.3-3.7-3.7-6.3-4.6c-0.2-0.3-0.4-0.2-0.6,0c-1.3,0.3-2.7,0-4,0.5c-4.7,1.9-7.1,7-5.4,11.9c0.2,0.5,0.5,1,0.5,1.6
		C32.9,47.3,31.1,48.3,29.1,48.9z"/>
	<path class="st1" d="M4.8,29.1c0.6-0.7,1.6-1,2.3-1.4c0.9-0.6,1.8-1.2,2.8-1.6c0.5,0.1,0.7,0.5,1,0.8c4.1,4.7,9.7,4.8,13.8,0.1
		c0.3-0.4,0.6-0.8,1-1.1c2,0.3,3.5,1.7,5.1,2.8c0.2,0.1,0.2,0.4,0,0.7c-0.9,0.7-1.8,1.2-2.8,1.8c-1.7,1.1-3.5,2.2-5.2,3.3
		c-1.4,0.9-2.8,1.7-4.1,2.6c-0.1,0.1-0.3,0.1-0.4,0.1c-0.7-0.4-1.6-0.3-2.3-0.8c-1.4-1-2.9-1.8-4.4-2.7c-1.8-1.2-3.6-2.3-5.4-3.5
		C5.8,29.7,5.1,29.7,4.8,29.1z"/>
	<path class="st1" d="M29.1,48.9c0.6-0.7,1.6-1,2.3-1.4c0.9-0.6,1.8-1.2,2.8-1.6c0.5,0.1,0.7,0.5,1,0.8c4.1,4.7,9.7,4.8,13.8,0.1
		c0.3-0.4,0.6-0.8,1-1.1c2,0.3,3.5,1.7,5.1,2.8c0.2,0.1,0.2,0.4,0,0.7c-0.9,0.7-1.8,1.2-2.8,1.8c-1.7,1.1-3.5,2.2-5.2,3.3
		c-1.4,0.9-2.8,1.7-4.1,2.6C43,57,42.8,57,42.7,57c-0.7-0.4-1.6-0.3-2.3-0.8c-1.4-1-2.9-1.8-4.4-2.7c-1.8-1.2-3.6-2.3-5.4-3.5
		C30.1,49.5,29.4,49.5,29.1,48.9z"/>
	<path class="st2" d="M30.9,29.4c0-0.2,0.1-0.4-0.1-0.5c-1.6-0.8-3.1-1.8-4.7-2.7c-0.1,0-0.2,0-0.3,0c-1.5-0.4-2.7-1.5-4.1-2.2
		c-1.3-0.9-2.8-1.4-3.8-2.6c0.3-1.1,1.4-1.2,2.2-1.8c0.6-0.5,1.3-0.7,1.9-1.1c1.3-0.6,2.2-1.9,3.8-1.9c1.3-0.8,2.7-1.6,4-2.4
		c0.5-0.3,0.9-0.6,1.4-0.9c0,2,0,4.1,0,6.1c0,1.4,0.4,2.8,0.3,4.2c-0.1,1.4,0,2.9,0,4.3c0,0.3,0,0.6,0,0.9
		C31.5,29.1,31.3,29.3,30.9,29.4z"/>
	<path class="st2" d="M55.2,49.2c0-0.2,0.1-0.4-0.1-0.5c-1.6-0.8-3.1-1.8-4.7-2.7c-0.1,0-0.2,0-0.3,0c-1.5-0.4-2.7-1.5-4.1-2.2
		c-1.3-0.9-2.8-1.4-3.8-2.6c0.3-1.1,1.4-1.2,2.2-1.8c0.6-0.5,1.3-0.7,1.9-1.1c1.3-0.6,2.2-1.9,3.8-1.9c1.3-0.8,2.7-1.6,4-2.4
		c0.5-0.3,0.9-0.6,1.4-0.9c0,1.2,0,2.4,0,3.6c0.3,1.2,0.1,2.4,0.1,3.6c-0.4,0.9-1,0.7-1.5,0.2c-0.7-0.7-1,0.1-1.3,0.4
		c-0.6,0.6,0.4,0.6,0.5,1c0.3,0.8,0.5,0,0.7-0.2c0.5-0.5,1-0.6,1.5,0c0.1,1.1-0.2,2.1,0.2,3.2c0,1.2,0,2.3,0,3.5
		C55.8,48.7,55.7,49.1,55.2,49.2z"/>
	<path class="st3" d="M55.8,44.7c-0.3,0-0.3-0.2-0.3-0.4c0-1,0-2,0-2.9c-0.2-0.3-0.2-0.6,0-0.9c0-1.3,0-2.6,0-3.9
		c0.5,0.1,0.3,0.4,0.3,0.7C55.8,39.7,55.8,42.2,55.8,44.7z"/>
	<path class="st4" d="M21.9,23.7c1.4,0.7,2.7,1.4,3.9,2.4c-1.3,2.3-3.4,3.9-6.2,4.6c-1.9,0.4-3.6,0.1-5.2-0.6
		c-1.7-0.6-3.1-1.7-4-3.3c-0.1-0.2-0.5-0.3-0.5-0.7c-1-1.6-1.2-3.4-1.2-5.3c0-1.6,0.5-3,1.2-4.4c1.2-2.2,3-3.5,5.2-4.3
		c0.6-0.2,1.2-0.3,1.8-0.3c0.7,0,1.5,0,2.2,0c0.1-0.1,0.2-0.1,0.3,0c2.1,0.5,3.9,1.5,5.3,3.1c0.4,0.5,0.9,0.9,1,1.7
		c-1.2,0.7-2.4,1.4-3.6,2.1c-0.5,0.3-0.8,0-1.2-0.3c-2-1.6-3.9-1.8-5.6-0.6c-1.9,1.4-2.3,3.3-1.2,5.8c1.2,2.2,4.2,2.9,6.4,0.9
		C21.1,24.2,21.3,23.6,21.9,23.7z"/>
	<path class="st5" d="M19.5,11.7c-0.1,0-0.2,0-0.3,0c0-0.1,0-0.3,0.2-0.2C19.5,11.5,19.5,11.6,19.5,11.7z"/>
	<path class="st4" d="M50.1,36.3c-1.2,0.7-2.4,1.4-3.6,2.1c-0.5,0.3-0.8,0-1.2-0.3c-2-1.6-3.9-1.8-5.6-0.6c-1.9,1.4-2.3,3.3-1.2,5.8
		c1.2,2.2,4.2,2.9,6.4,0.9c0.3-0.3,0.5-0.9,1.2-0.8c1.4,0.7,2.7,1.4,3.9,2.4c-1.3,2.3-3.4,3.9-6.2,4.6c-1.9,0.4-3.6,0.1-5.2-0.6
		c-1.7-0.6-3.1-1.7-4-3.3c-0.1-0.2-0.5-0.3-0.5-0.7c-1-1.6-1.2-3.4-1.2-5.3c0-1.6,0.5-3,1.2-4.4c1.2-2.2,3-3.5,5.2-4.3
		c0.6-0.2,1.2-0.3,1.8-0.3c0.7,0,1.5,0,2.2,0c0.1-0.1,0.2-0.1,0.3,0c2.1,0.5,3.9,1.5,5.3,3.1C49.5,35.1,50.1,35.6,50.1,36.3z"/>
	<path class="st5" d="M43.8,31.5c-0.1,0-0.2,0-0.3,0c0-0.1,0-0.3,0.2-0.2C43.7,31.3,43.8,31.4,43.8,31.5z"/>
	<path class="st0" d="M14.1,23.7c-1.5-1.8-1-4.2,0.3-5.5c0.4-0.4,0.9-0.9,1.4-1.2c1.7-1,3.8-0.5,5.2,0.6c0.2,0.2,0.2,0.4,0.3,0.6
		c0.1,0.3,0.4,0.5,0.9,0.4c-0.8,0.7-1.7,1-2.5,1.5c-0.6,0.4-1.2,0.6-1.6,1.2C16.9,22.4,15.6,23.1,14.1,23.7z"/>
	<path class="st6" d="M14.1,23.7c0-0.3,0.2-0.5,0.4-0.5c1.1-0.5,2.1-1.1,3-1.8c0.1-0.1,0.3,0,0.4,0c1.3,0.8,2.7,1.5,3.9,2.4
		c-1,1.4-1.2,1.4-3.2,2.2c-0.4,0.2-0.8,0.3-1.1,0.2c-1.3-0.3-2.6-0.8-3.5-1.9C14,24,14.1,23.9,14.1,23.7z"/>
	<path class="st0" d="M38.4,43.5c-1.5-1.8-1-4.2,0.3-5.5c0.4-0.4,0.9-0.9,1.4-1.2c1.7-1,3.8-0.5,5.2,0.6c0.2,0.2,0.2,0.4,0.3,0.6
		c0.1,0.3,0.4,0.5,0.9,0.4c-0.8,0.7-1.7,1-2.5,1.5c-0.6,0.4-1.2,0.6-1.6,1.2C41.2,42.2,39.8,42.9,38.4,43.5z"/>
	<path class="st6" d="M38.4,43.5c0-0.3,0.2-0.5,0.4-0.5c1.1-0.5,2.1-1.1,3-1.8c0.1-0.1,0.3,0,0.4,0c1.3,0.8,2.7,1.5,3.9,2.4
		c-1,1.4-1.2,1.4-3.2,2.2c-0.4,0.2-0.8,0.3-1.1,0.2c-1.3-0.3-2.6-0.8-3.5-1.9C38.3,43.8,38.4,43.6,38.4,43.5z"/>
	<path class="st7" d="M49.6,42.9c-0.6,0-0.6,0-0.7-0.8c0-0.7,0-0.7-0.7-0.7c-0.1,0-0.3,0-0.4,0c-0.4,0-0.3-0.2-0.4-0.5
		c0-0.3,0.1-0.4,0.4-0.4c0.1,0,0.3,0,0.4,0c0.6,0.1,0.7-0.2,0.6-0.7c-0.1-0.5,0.2-0.6,0.6-0.6c0.4,0,0.7,0.1,0.6,0.6
		c-0.1,0.5,0,0.8,0.6,0.7c0.3,0,0.6-0.1,0.6,0.4c0,0.4-0.1,0.5-0.5,0.5c-0.7,0-0.7,0.1-0.7,0.9C50.1,42.9,50.1,42.9,49.6,42.9z"/>
	<path class="st7" d="M55.5,40.5c0,0.3,0,0.6,0,0.9c-0.1,0-0.3,0-0.4,0c-0.7,0-0.7,0-0.8,0.7c0,0.1,0,0.3,0,0.4
		c0,0.5-0.3,0.4-0.6,0.4c-0.3,0-0.6,0.1-0.6-0.4c0-0.2,0-0.5,0-0.7c0-0.3-0.2-0.4-0.5-0.4c-0.2,0-0.5,0-0.7,0
		c-0.4,0-0.3-0.3-0.3-0.5c0-0.2,0-0.4,0.3-0.4c0.1,0,0.3,0,0.4,0c0.5,0.1,0.9,0,0.8-0.7c-0.1-0.5,0.2-0.5,0.6-0.5
		c0.4,0,0.7,0,0.6,0.5c-0.1,0.7,0.3,0.7,0.8,0.7C55.2,40.5,55.3,40.5,55.5,40.5z"/>
</g>
</svg>
