<?xml version="1.0" encoding="utf-8"?>
<!-- Generator: Adobe Illustrator 26.0.2, SVG Export Plug-In . SVG Version: 6.00 Build 0)  -->
<svg version="1.1" id="Layer_1" xmlns="http://www.w3.org/2000/svg" xmlns:xlink="http://www.w3.org/1999/xlink" x="0px" y="0px"
	 viewBox="0 0 60 60" style="enable-background:new 0 0 60 60;" xml:space="preserve">
<style type="text/css">
	.st0{fill:#F19011;}
	.st1{fill:#00758E;}
</style>
<g>
	<path class="st0" d="M29.2,32.9c-0.1,0.1-0.2,0.1-0.3,0c-2.2-1.4-4.3-2.8-5.8-5c-1-1.4-1.6-2.9-1.7-4.5c-0.2-2,0.6-3.6,1.7-5.2
		c1.2-1.6,2.8-2.9,4.3-4.2c1.7-1.5,3.5-2.9,5.1-4.5c1.1-1.1,2-2.3,2.6-3.8c0.7-1.7,0.8-3.4,0.5-5.2c0-0.1-0.1-0.3,0-0.3
		c0.2-0.1,0.2,0.1,0.3,0.2C37,2,37.2,3.7,37,5.6c-0.3,2.7-1.7,4.9-3.5,6.8c-1.6,1.7-3.4,3.2-5.1,4.8c-0.7,0.6-1.3,1.3-1.9,2
		c-2,2.2-2.4,4.7-1.5,7.5c0.6,1.9,1.7,3.5,3.1,5C28.4,32.1,28.8,32.5,29.2,32.9z"/>
	<path class="st1" d="M17.1,48.7c-1,0.3-1.9,0.6-2.7,1c-0.5,0.3-1,0.6-1.3,1c-0.4,0.6-0.4,1.1,0.2,1.5c0.8,0.6,1.8,0.9,2.7,1.1
		c2.8,0.8,5.7,1.1,8.6,1.4c3.6,0.3,7.3,0.1,10.9-0.2c2.9-0.3,5.7-0.7,8.4-1.6c0.6-0.2,1.3-0.5,1.8-0.9c0.4-0.3,0.8-0.6,1-1.1
		c0.1-0.2,0.2-0.2,0.4-0.1c0.5,0.5,0.6,1.2,0.2,1.8c-0.4,0.6-0.9,0.9-1.5,1.2c-1.6,0.8-3.3,1.2-5,1.6c-4.9,1-9.8,1.3-14.8,1.1
		c-3.8-0.1-7.5-0.4-11.2-1.2c-1.7-0.3-3.4-0.7-5-1.5c-0.4-0.2-0.8-0.5-1.1-0.8c-0.4-0.5-0.5-1.1-0.1-1.6c0.4-0.5,0.9-0.9,1.5-1.2
		c1.4-0.7,2.9-1.1,4.4-1.5c0.6-0.1,1.3-0.2,1.9-0.4C16.7,48.5,16.9,48.5,17.1,48.7z"/>
	<path class="st0" d="M41.2,12.6c-0.2,0.1-0.4,0.2-0.6,0.3c-2.1,1.2-4.1,2.6-5.7,4.6c-1,1.2-1.7,2.6-1.7,4.3c0,0.9,0.3,1.6,0.7,2.4
		c0.5,1,1,1.9,1.6,2.8c1.2,2.1,0.9,3.7-0.5,5.6c-0.7,0.9-1.5,1.5-2.4,2.1c-0.1,0.1-0.3,0.2-0.4,0.1c-0.2-0.2,0-0.3,0.1-0.4
		c1.1-1.5,1.3-3.1,0.5-4.8c-0.4-1-1.1-1.8-1.6-2.7c-0.5-0.9-1-1.7-1.2-2.7c-0.3-1.8,0.1-3.5,1.1-5c1-1.5,2.4-2.7,3.9-3.6
		c1.8-1.2,3.8-2.1,5.9-2.8c0.1,0,0.1,0,0.2,0C41.1,12.5,41.1,12.5,41.2,12.6z"/>
	<path class="st1" d="M43.2,36.6c-0.7,0.4-1.5,0.6-2.2,0.7c-3.5,0.9-7.1,1.3-10.7,1.4c-2.6,0.1-5.1,0-7.7-0.3
		c-2.3-0.2-4.7-0.6-6.9-1.4c-0.5-0.2-1.1-0.4-1.5-0.8c-0.4-0.4-0.4-0.7,0-1.1c0.4-0.4,0.8-0.6,1.3-0.8c1.6-0.6,3.2-0.9,4.9-1.1
		c0.8-0.1,1.7-0.2,2.5-0.3c0.2,0,0.4,0,0.5,0.2c-1.4,0.3-2.7,0.5-4,1c-0.4,0.1-0.9,0.3-1.2,0.6c-0.4,0.3-0.4,0.6,0.1,0.9
		c0.8,0.4,1.7,0.6,2.5,0.7c4.1,0.7,8.2,0.8,12.3,0.5c2.7-0.2,5.4-0.5,8.1-1.2c0.1,0,0.2-0.1,0.3,0C42.1,35.9,42.6,36.2,43.2,36.6z"
		/>
	<path class="st1" d="M20.9,40C20.9,40,20.9,40,20.9,40c-0.9,0.6-1,1.3,0.2,1.7c1.2,0.5,2.4,0.6,3.6,0.8c3.7,0.4,7.4,0.3,11-0.3
		c0.8-0.1,1.5-0.3,2.3-0.5c0.3-0.1,0.5,0,0.7,0.1c0.6,0.4,1.2,0.7,1.9,1.1c-0.5,0.3-1,0.4-1.4,0.6c-2.3,0.7-4.8,1.1-7.2,1.2
		c-2.5,0.2-4.9,0.2-7.4-0.1c-2.2-0.2-4.4-0.5-6.4-1.3c-0.4-0.2-0.9-0.4-1.2-0.7c-0.6-0.5-0.5-1,0.1-1.4c0.8-0.5,1.6-0.7,2.5-0.9
		C20,40.1,20.4,40,20.9,40z"/>
	<path class="st1" d="M38,49.5c-0.9,0.5-1.9,0.8-2.9,1.1c-3,0.7-6.1,0.8-9.2,0.5c-1.7-0.2-3.3-0.4-4.9-1c-0.5-0.2-0.9-0.4-1.3-0.7
		c-0.7-0.6-0.6-1.2,0.1-1.7c0.6-0.5,1.4-0.7,2.1-0.8c0.2-0.1,0.5-0.2,0.8-0.1c-0.1,0.2-0.3,0.4-0.2,0.6c0.1,0.3,0.4,0.4,0.6,0.5
		c0.9,0.4,2,0.6,3,0.6c3,0.3,6.1,0.2,9.1-0.5c0.1,0,0.2,0,0.4,0C36.3,48.5,37.1,49,38,49.5z"/>
	<path class="st1" d="M15.9,58.2c0.2-0.2,0.3-0.2,0.5-0.2c4.5,0.7,9.1,1,13.7,0.8c4.9-0.2,9.7-0.6,14.4-2.1c1.6-0.5,3.1-1.1,4.4-2.1
		c0.3-0.2,0.6-0.4,0.9-0.7c0.1-0.1,0.1-0.2,0.3-0.1c0.1,0.1,0,0.2,0,0.3c-0.1,0.5-0.4,0.9-0.7,1.3c-1,1-2.3,1.6-3.7,2.1
		c-2.5,0.9-5.1,1.4-7.7,1.8c-2.9,0.4-5.8,0.6-8.8,0.6c-4.5,0-8.9-0.4-13.2-1.6C15.9,58.2,15.9,58.2,15.9,58.2z"/>
	<path class="st1" d="M42.3,43.9c0.6-0.3,1.1-0.7,1.6-1c1.3-0.8,2.6-1.8,3.6-3c0.7-0.9,1.1-1.8,1.3-2.9c0.4-2.4-1.4-4.3-3.9-4.1
		c-0.1,0-0.2,0-0.3,0c0-0.2,0.1-0.3,0.2-0.4c1.7-0.4,3.4-0.4,4.9,0.6c1.9,1.3,2.3,3.6,1.1,5.7c-0.9,1.4-2.2,2.4-3.6,3.2
		c-1.4,0.8-2.9,1.4-4.4,1.9C42.7,44,42.5,44.1,42.3,43.9z"/>
</g>
</svg>
